<svg width="60" height="172" viewBox="0 0 60 172" fill="none" xmlns="http://www.w3.org/2000/svg">
<path d="M59.1777 163.279L54.7788 156.797C54.7289 156.723 54.6613 156.662 54.5822 156.62C54.5031 156.578 54.4149 156.556 54.3254 156.557H53.6322V155.037C53.6322 154.89 53.5745 154.75 53.4717 154.646C53.3689 154.543 53.2294 154.484 53.0836 154.483H51.3687C51.2229 154.484 51.0833 154.543 50.9806 154.646C50.8778 154.75 50.8201 154.89 50.8201 155.037V156.557H44.8081C44.7687 156.553 44.7292 156.553 44.6898 156.557H44.6537L44.5748 156.586L44.5321 156.609H44.5026L44.4336 156.665C44.4146 156.685 44.3971 156.706 44.381 156.728L40.1365 162.992C40.0794 163.075 40.0461 163.172 40.0401 163.272C40.034 163.373 40.0556 163.473 40.1023 163.562C40.149 163.651 40.2192 163.725 40.3051 163.777C40.3911 163.829 40.4896 163.856 40.5898 163.856H42.492V170.677C42.4911 170.75 42.5046 170.822 42.5315 170.889C42.5584 170.957 42.5983 171.019 42.649 171.071C42.6996 171.123 42.76 171.164 42.8266 171.193C42.8933 171.221 42.9649 171.237 43.0373 171.237H56.8879C57.0337 171.237 57.1732 171.178 57.276 171.074C57.3788 170.97 57.4365 170.83 57.4365 170.684V164.139H58.7177C58.8178 164.14 58.9161 164.113 59.002 164.062C59.0879 164.01 59.1582 163.936 59.2052 163.848C59.2522 163.759 59.2742 163.659 59.2688 163.559C59.2633 163.459 59.2307 163.362 59.1744 163.279H59.1777ZM56.3425 164.139V170.126H51.9075V164.139H56.3425ZM48.1097 165.425C47.9212 165.236 47.6974 165.086 47.4511 164.983C47.2047 164.881 46.9407 164.828 46.6741 164.828C46.4075 164.828 46.1435 164.881 45.8971 164.983C45.6508 165.086 45.427 165.236 45.2385 165.425C45.1873 165.476 45.1468 165.537 45.1192 165.603C45.0915 165.67 45.0774 165.742 45.0775 165.814V170.126H43.5926V163.5L46.0368 159.893L48.7537 163.895C48.8036 163.97 48.8711 164.031 48.9502 164.073C49.0293 164.115 49.1175 164.137 49.207 164.136H50.8201V170.123H48.2707V165.814C48.2695 165.668 48.2118 165.529 48.1097 165.425ZM45.8495 157.661H50.8201V159.573C50.8308 159.712 50.8934 159.842 50.9954 159.937C51.0974 160.032 51.2313 160.084 51.3703 160.084C51.5093 160.084 51.6432 160.032 51.7453 159.937C51.8473 159.842 51.9099 159.712 51.9206 159.573V155.587H52.5349V159.573C52.5349 159.719 52.5927 159.859 52.6956 159.963C52.7985 160.066 52.9381 160.124 53.0836 160.124C53.2291 160.124 53.3686 160.066 53.4715 159.963C53.5744 159.859 53.6322 159.719 53.6322 159.573V157.661H54.0363L57.6829 163.038H49.4961L45.8495 157.661ZM45.3731 158.914L42.745 162.778H41.6214L44.8048 158.086L45.3731 158.914ZM46.1747 166.075C46.3239 165.986 46.4941 165.939 46.6675 165.939C46.8409 165.939 47.0112 165.986 47.1603 166.075V170.126H46.1747V166.075Z" fill="#BEBBBC"/>
<path d="M56.5819 161.713C56.4775 161.61 56.3372 161.552 56.1909 161.551H49.9161C49.7775 161.562 49.648 161.625 49.5536 161.727C49.4592 161.83 49.4067 161.964 49.4067 162.103C49.4067 162.243 49.4592 162.377 49.5536 162.48C49.648 162.582 49.7775 162.645 49.9161 162.656H56.1778C56.3236 162.656 56.4635 162.598 56.5669 162.495C56.6703 162.392 56.7288 162.251 56.7297 162.105C56.7325 161.96 56.6796 161.82 56.5819 161.713Z" fill="#BEBBBC"/>
<path d="M15.2004 30.2909C15.2004 31.3868 14.3088 32.2752 13.2091 32.2752C12.1093 32.2752 11.2178 31.3868 11.2178 30.2909C11.2178 29.195 12.1093 28.3066 13.2091 28.3066C14.3088 28.3066 15.2004 29.195 15.2004 30.2909Z" fill="#FFB708"/>
<path d="M15.2004 40.9052C15.2004 42.0011 14.3088 42.8895 13.2091 42.8895C12.1093 42.8895 11.2178 42.0011 11.2178 40.9052C11.2178 39.8093 12.1093 38.9209 13.2091 38.9209C14.3088 38.9209 15.2004 39.8093 15.2004 40.9052Z" fill="#FFB708"/>
<path d="M15.8527 51.1972C15.8527 52.2931 14.9612 53.1815 13.8614 53.1815C12.7616 53.1815 11.8701 52.2931 11.8701 51.1972C11.8701 50.1013 12.7616 49.2129 13.8614 49.2129C14.9612 49.2129 15.8527 50.1013 15.8527 51.1972Z" fill="#FFB708"/>
<path d="M18.7043 59.995C18.7043 61.0909 17.8127 61.9793 16.713 61.9793C15.6132 61.9793 14.7217 61.0909 14.7217 59.995C14.7217 58.8991 15.6132 58.0107 16.713 58.0107C17.8127 58.0107 18.7043 58.8991 18.7043 59.995Z" fill="#FFB708"/>
<path d="M22.9538 68.9833C22.9538 70.0792 22.0622 70.9676 20.9625 70.9676C19.8627 70.9676 18.9712 70.0792 18.9712 68.9833C18.9712 67.8874 19.8627 66.999 20.9625 66.999C22.0622 66.999 22.9538 67.8874 22.9538 68.9833Z" fill="#FFB708"/>
<path d="M28.526 76.6913C28.526 77.7872 27.6345 78.6756 26.5348 78.6756C25.435 78.6756 24.5435 77.7872 24.5435 76.6913C24.5435 75.5954 25.435 74.707 26.5348 74.707C27.6345 74.707 28.526 75.5954 28.526 76.6913Z" fill="#FFB708"/>
<path d="M34.631 83.1796C34.631 84.2755 33.7395 85.1639 32.6397 85.1639C31.54 85.1639 30.6484 84.2755 30.6484 83.1796C30.6484 82.0837 31.54 81.1953 32.6397 81.1953C33.7395 81.1953 34.631 82.0837 34.631 83.1796Z" fill="#FFB708"/>
<path d="M41.05 89.6977C41.05 90.7935 40.1584 91.6819 39.0587 91.6819C37.9589 91.6819 37.0674 90.7935 37.0674 89.6977C37.0674 88.6018 37.9589 87.7134 39.0587 87.7134C40.1584 87.7134 41.05 88.6018 41.05 89.6977Z" fill="#FFB708"/>
<path d="M46.5231 97.2729C46.5231 98.3688 45.6316 99.2572 44.5318 99.2572C43.4321 99.2572 42.5405 98.3688 42.5405 97.2729C42.5405 96.177 43.4321 95.2886 44.5318 95.2886C45.6316 95.2886 46.5231 96.177 46.5231 97.2729Z" fill="#FFB708"/>
<path d="M50.8219 106.396C50.8219 107.492 49.9304 108.381 48.8306 108.381C47.7309 108.381 46.8394 107.492 46.8394 106.396C46.8394 105.301 47.7309 104.412 48.8306 104.412C49.9304 104.412 50.8219 105.301 50.8219 106.396Z" fill="#FFB708"/>
<path d="M53.8127 115.244C53.8127 116.339 52.9211 117.228 51.8214 117.228C50.7216 117.228 49.8301 116.339 49.8301 115.244C49.8301 114.148 50.7216 113.259 51.8214 113.259C52.9211 113.259 53.8127 114.148 53.8127 115.244Z" fill="#FFB708"/>
<path d="M54.2839 125.444C54.2839 126.54 53.3923 127.429 52.2926 127.429C51.1928 127.429 50.3013 126.54 50.3013 125.444C50.3013 124.348 51.1928 123.46 52.2926 123.46C53.3923 123.46 54.2839 124.348 54.2839 125.444Z" fill="#FFB708"/>
<path d="M54.2839 136.154C54.2839 137.25 53.3923 138.138 52.2926 138.138C51.1928 138.138 50.3013 137.25 50.3013 136.154C50.3013 135.058 51.1928 134.17 52.2926 134.17C53.3923 134.17 54.2839 135.058 54.2839 136.154Z" fill="#FFB708"/>
<path d="M54.2839 146.489C54.2839 147.585 53.3923 148.473 52.2926 148.473C51.1928 148.473 50.3013 147.585 50.3013 146.489C50.3013 145.393 51.1928 144.505 52.2926 144.505C53.3923 144.505 54.2839 145.393 54.2839 146.489Z" fill="#FFB708"/>
<path d="M26.0859 13.8569V8.91165C26.0907 8.71307 26.0229 8.51961 25.8954 8.36767L25.8001 8.28525C25.4716 7.86655 25.1431 7.43466 24.8146 6.99618C24.619 6.73991 24.4453 6.4675 24.2955 6.18186C23.6647 4.94225 23.0044 3.6268 22.2225 2.04762C22.1601 1.8946 22.0514 1.76514 21.9117 1.67758C21.7719 1.59001 21.6083 1.54877 21.4439 1.55969C20.7868 1.55969 20.1035 1.55969 19.43 1.55969H18.1915V0.873941C18.202 0.75577 18.1891 0.63668 18.1536 0.523521C18.1181 0.410361 18.0606 0.305365 17.9845 0.214572C17.8946 0.137146 17.7901 0.0785849 17.6773 0.0423453C17.5644 0.00610579 17.4455 -0.00707226 17.3275 0.00357965H4.73515C4.64261 0.00149735 4.55011 0.00923534 4.45919 0.02666C4.33896 0.0532469 4.22754 0.110349 4.13559 0.192508C4.04363 0.274667 3.97423 0.379128 3.93401 0.495903C3.8938 0.612678 3.88411 0.737859 3.90589 0.859463C3.92767 0.981067 3.98018 1.09503 4.05839 1.19045C4.14365 1.27719 4.24634 1.3447 4.35964 1.38847C4.47294 1.43224 4.59424 1.45127 4.71544 1.4443H16.7591V6.7687C16.7591 7.36543 17.022 7.62918 17.61 7.62918H23.2344C23.3201 7.62499 23.4055 7.64276 23.4825 7.68083C23.5595 7.71889 23.6256 7.776 23.6746 7.84677C23.8027 8.01821 23.9308 8.17645 24.0622 8.35448C24.1936 8.53251 24.3678 8.74681 24.5123 8.94462C24.5997 9.06561 24.6478 9.21063 24.6503 9.36002C24.6503 10.3095 24.6503 11.259 24.6503 12.2085V12.8085C24.6503 12.858 24.6503 12.9074 24.6503 12.9602V13.1844H23.1227L23.0175 12.9008C22.8147 12.2988 22.4283 11.7762 21.9129 11.4069C21.3976 11.0377 20.7794 10.8406 20.1462 10.8436C19.5139 10.8392 18.8963 11.0358 18.3823 11.4054C17.8682 11.775 17.484 12.2985 17.2848 12.9008C17.2617 12.9917 17.2069 13.0713 17.1303 13.1251C17.0538 13.1789 16.9606 13.2035 16.8676 13.1943C15.8426 13.1943 14.8208 13.1943 13.7959 13.1943H12.5836L12.5245 13.0591C12.5123 13.0336 12.5024 13.0072 12.4949 12.98C12.3051 12.361 11.9225 11.8195 11.4033 11.435C10.8841 11.0505 10.2557 10.8432 9.61045 10.8436C8.9698 10.8444 8.34569 11.0478 7.82673 11.4247C7.30777 11.8017 6.92033 12.3332 6.71944 12.9437C6.69591 13.0241 6.64464 13.0934 6.57482 13.1393C6.505 13.1852 6.42117 13.2047 6.33835 13.1943H4.65631C4.5512 13.1913 4.44656 13.2093 4.34844 13.2472C4.25032 13.2851 4.16067 13.3422 4.08468 13.4151C4.02091 13.4823 3.97097 13.5614 3.93771 13.648C3.90445 13.7345 3.88852 13.8268 3.89085 13.9196C3.8919 14.0176 3.91301 14.1143 3.95287 14.2038C3.99274 14.2933 4.05051 14.3736 4.12259 14.4398C4.19468 14.506 4.27954 14.5565 4.37192 14.5884C4.46429 14.6203 4.56221 14.6328 4.65959 14.6251C5.22466 14.6251 5.793 14.6251 6.36135 14.6251C6.44453 14.6179 6.52771 14.639 6.59746 14.685C6.6672 14.7311 6.71943 14.7994 6.74572 14.8789C6.95205 15.474 7.33699 15.9903 7.84761 16.3569C8.35823 16.7236 8.96948 16.9224 9.59731 16.9263H9.61374C10.2409 16.923 10.8516 16.7242 11.3613 16.3575C11.871 15.9907 12.2545 15.474 12.4588 14.8789C12.482 14.7993 12.532 14.7301 12.6002 14.6832C12.6685 14.6363 12.7509 14.6146 12.8333 14.6218H16.9037C16.9892 14.6139 17.0748 14.6363 17.1456 14.6851C17.2164 14.7338 17.2679 14.8059 17.2914 14.8888C17.4999 15.4823 17.8862 15.9966 18.3972 16.3613C18.9083 16.726 19.5191 16.9234 20.1462 16.9263C20.7753 16.9243 21.3882 16.7262 21.9002 16.3594C22.4123 15.9927 22.7981 15.4753 23.0044 14.8789C23.0282 14.7958 23.0796 14.7233 23.1501 14.6735C23.2207 14.6238 23.306 14.5997 23.392 14.6053C24.0491 14.6053 24.6766 14.6053 25.3172 14.6053C25.4185 14.6145 25.5205 14.6016 25.6164 14.5676C25.7123 14.5336 25.7997 14.4792 25.8727 14.4081C25.9457 14.3371 26.0025 14.251 26.0393 14.1559C26.0761 14.0608 26.092 13.9588 26.0859 13.8569ZM18.2014 6.17856V2.97733H19.4563C19.913 2.97733 20.3663 2.97733 20.8197 2.97733C20.8955 2.98048 20.9696 3.00153 21.0358 3.03876C21.102 3.07599 21.1585 3.12836 21.2008 3.19162C21.572 3.91693 21.9367 4.64553 22.3013 5.37743L22.5215 5.81921C22.5215 5.84558 22.5445 5.87196 22.5576 5.90493L22.6529 6.17197L18.2014 6.17856ZM10.734 15.0108C10.5838 15.1614 10.4056 15.2808 10.2094 15.3623C10.0133 15.4438 9.80304 15.4856 9.59074 15.4856C9.16729 15.4856 8.76118 15.3167 8.46176 15.0163C8.16233 14.7158 7.99411 14.3082 7.99411 13.8833C7.99411 13.4583 8.16233 13.0508 8.46176 12.7503C8.76118 12.4498 9.16729 12.281 9.59074 12.281C9.90649 12.2796 10.2155 12.3724 10.4786 12.5476C10.7417 12.7228 10.947 12.9725 11.0685 13.265C11.1899 13.5575 11.222 13.8796 11.1607 14.1904C11.0994 14.5012 10.9475 14.7868 10.7242 15.0108H10.734ZM20.1528 15.4856C19.7296 15.4856 19.3234 15.318 19.0226 15.0192C18.7218 14.7204 18.5506 14.3146 18.5463 13.8899C18.5467 13.6783 18.5887 13.4689 18.6699 13.2737C18.7511 13.0784 18.8698 12.9012 19.0194 12.752C19.1689 12.6029 19.3463 12.4848 19.5413 12.4046C19.7364 12.3243 19.9453 12.2835 20.1561 12.2843C20.5795 12.2843 20.9856 12.4531 21.2851 12.7536C21.5845 13.0541 21.7527 13.4616 21.7527 13.8866C21.7527 14.3115 21.5845 14.7191 21.2851 15.0196C20.9856 15.32 20.5795 15.4889 20.1561 15.4889L20.1528 15.4856Z" fill="#BEBBBC"/>
<path d="M5.43237 3.00995H8.66833C8.78826 3.00259 8.90842 3.01994 9.02141 3.06093C9.1344 3.10192 9.23784 3.16568 9.32535 3.2483C9.41287 3.33091 9.48261 3.43063 9.53028 3.54131C9.57794 3.65199 9.60254 3.77128 9.60254 3.89185C9.60254 4.01242 9.57794 4.13172 9.53028 4.2424C9.48261 4.35308 9.41287 4.4528 9.32535 4.53541C9.23784 4.61803 9.1344 4.68179 9.02141 4.72278C8.90842 4.76377 8.78826 4.78112 8.66833 4.77376H2.14713C1.93453 4.77589 1.7284 4.70045 1.56707 4.56148C1.40575 4.42251 1.30021 4.22948 1.27008 4.01827C1.23996 3.80706 1.2873 3.59206 1.40331 3.41326C1.51931 3.23446 1.69608 3.10402 1.90074 3.04621C2.00862 3.02285 2.11895 3.01289 2.22926 3.01654L5.43237 3.00995Z" fill="#BEBBBC"/>
<path d="M4.18705 7.8169C3.09307 7.8169 1.99908 7.8169 0.901811 7.8169C0.717734 7.82358 0.536378 7.77081 0.384402 7.66637C0.232426 7.56192 0.117846 7.41131 0.0575043 7.23667C-0.00723995 7.07156 -0.0176118 6.88999 0.0279077 6.71854C0.0734271 6.54709 0.172447 6.39476 0.310468 6.28387C0.484268 6.15372 0.691974 6.07699 0.908382 6.06299C3.0865 6.04651 5.2679 6.06299 7.4493 6.06299C7.56922 6.05563 7.68938 6.07297 7.80237 6.11396C7.91537 6.15495 8.0188 6.21872 8.10632 6.30134C8.19383 6.38395 8.26357 6.48366 8.31124 6.59434C8.35891 6.70502 8.3835 6.82432 8.3835 6.94489C8.3835 7.06547 8.35891 7.18477 8.31124 7.29544C8.26357 7.40612 8.19383 7.50584 8.10632 7.58846C8.0188 7.67107 7.91537 7.73483 7.80237 7.77582C7.68938 7.81682 7.56922 7.83416 7.4493 7.82679C6.3586 7.8202 5.27118 7.8169 4.18705 7.8169Z" fill="#BEBBBC"/>
<path d="M3.93477 9.09998H5.6201C5.74212 9.08939 5.86499 9.10437 5.98093 9.14396C6.09688 9.18356 6.20335 9.2469 6.2936 9.32997C6.38385 9.41305 6.45591 9.51405 6.50521 9.62656C6.55451 9.73906 6.57996 9.86063 6.57996 9.98353C6.57996 10.1064 6.55451 10.228 6.50521 10.3405C6.45591 10.453 6.38385 10.554 6.2936 10.6371C6.20335 10.7202 6.09688 10.7835 5.98093 10.8231C5.86499 10.8627 5.74212 10.8777 5.6201 10.8671H2.1706C1.96046 10.8732 1.75522 10.8028 1.59278 10.6688C1.43035 10.5349 1.32169 10.3465 1.28687 10.1385C1.24764 9.93946 1.27947 9.73293 1.37678 9.5551C1.4741 9.37727 1.63068 9.2395 1.81908 9.16592C1.94958 9.12352 2.086 9.10237 2.22316 9.10328C2.80465 9.09668 3.36643 9.09998 3.93477 9.09998Z" fill="#BEBBBC"/>
</svg>
