<?xml version="1.0" encoding="utf-8"?>
<!-- Generator: Adobe Illustrator 23.0.3, SVG Export Plug-In . SVG Version: 6.00 Build 0)  -->
<svg version="1.1" id="Calque_1" xmlns="http://www.w3.org/2000/svg" xmlns:xlink="http://www.w3.org/1999/xlink" x="0px" y="0px"
	 viewBox="0 0 539.4 162.1" style="enable-background:new 0 0 539.4 162.1;" xml:space="preserve">
<style type="text/css">
	.st0{fill:#BEBBBC;}
	.st1{fill:#FFB708;}
</style>
<g id="Calque_2">
	<path class="st0" d="M79.9,42.1v-15c0-0.6-0.2-1.2-0.6-1.6L79,25.2c-1-1.3-2-2.6-3-3.9c-0.6-0.8-1.1-1.6-1.6-2.5
		C72.5,15,70.5,11,68.1,6.2c-0.4-1-1.3-1.5-2.4-1.5l0,0c-2,0-4.1,0-6.1,0h-3.8V2.7c0.1-0.7-0.2-1.4-0.6-2c-0.6-0.5-1.3-0.7-2-0.6
		H14.9c-0.3,0-0.6,0-0.8,0.1c-1.2,0.3-1.9,1.4-1.7,2.6c0.1,0.3,0.2,0.7,0.4,0.9c0.5,0.5,1.3,0.8,2,0.8h36.7v16.2
		c0,1.8,0.8,2.6,2.6,2.6h17.1c0.5,0,1,0.2,1.3,0.7c0.4,0.5,0.8,1,1.2,1.5s0.9,1.2,1.4,1.8c0.3,0.4,0.4,0.8,0.4,1.3
		c0,2.9,0,5.8,0,8.6v1.8c0,0.1,0,0.3,0,0.5V40h-4.7l-0.3-0.9c-1.3-3.7-4.8-6.3-8.7-6.2l0,0c-3.9,0-7.5,2.5-8.7,6.2
		c-0.1,0.6-0.7,0.9-1.3,0.9l0,0c-3.1,0-6.2,0-9.3,0h-3.7l-0.2-0.4c0-0.1-0.1-0.2-0.1-0.2c-1.2-3.9-4.7-6.5-8.8-6.5
		c-4,0-7.5,2.6-8.8,6.4c-0.1,0.5-0.6,0.8-1.2,0.8h-5.1c-0.6,0-1.3,0.2-1.7,0.7c-0.4,0.4-0.6,1-0.6,1.5c0,1.2,1,2.2,2.2,2.1
		c0,0,0.1,0,0.1,0c1.7,0,3.5,0,5.2,0c0.5,0,1,0.3,1.2,0.8c1.3,3.7,4.8,6.2,8.7,6.2h0c3.9,0,7.4-2.5,8.7-6.2c0.1-0.5,0.6-0.8,1.1-0.8
		h12.4c0.5,0,1,0.3,1.2,0.8c1.3,3.7,4.8,6.2,8.7,6.2l0,0c3.9,0,7.4-2.5,8.7-6.2c0.1-0.5,0.6-0.9,1.2-0.8c2,0,3.9,0,5.9,0
		c1.2,0.1,2.2-0.8,2.3-1.9C79.9,42.3,79.9,42.2,79.9,42.1z M55.9,18.8V9.1h3.8c1.4,0,2.8,0,4.2,0c0.5,0,0.9,0.3,1.2,0.6
		c1.1,2.2,2.2,4.4,3.3,6.6l0.7,1.3c0,0.1,0.1,0.2,0.1,0.3l0.3,0.8L55.9,18.8z M33.2,45.6C32.2,46.5,31,47,29.7,47l0,0
		c-2.7,0-4.9-2.2-4.9-4.9c0-2.7,2.2-4.9,4.9-4.9l0,0c2.7,0,4.9,2.2,4.9,4.8C34.5,43.4,34,44.6,33.2,45.6L33.2,45.6z M61.8,47
		L61.8,47c-2.7,0-4.9-2.2-4.9-4.8c0-2.7,2.2-4.9,4.9-4.9c0,0,0,0,0,0l0,0c2.7,0,4.9,2.2,4.9,4.9C66.7,44.8,64.5,47,61.8,47L61.8,47z
		"/>
	<path class="st0" d="M6.4,9.8c-0.9,0.3-1.6,1.1-1.6,2.1c0,0.6,0.2,1.1,0.7,1.5S6.4,14,7,14h19.9c0.1,0,0.2,0,0.3,0
		c0.6,0,1.1-0.3,1.5-0.7c0.4-0.4,0.6-1,0.5-1.6c0-0.6-0.3-1.1-0.7-1.5c-0.4-0.4-1-0.6-1.6-0.5l-19.6,0C7,9.7,6.7,9.7,6.4,9.8z"/>
	<path class="st0" d="M23.2,23.3c0.1,0,0.2,0,0.3,0c0.6,0,1.1-0.3,1.5-0.7c0.4-0.4,0.6-1,0.5-1.6c-0.1-1.2-1.1-2.1-2.3-2
		c-2.2,0-4.5,0-6.7,0c-4.4,0-8.8,0-13.3,0c-0.5,0-1.1,0.2-1.5,0.6C1,20,0.8,21,1.1,21.8c0.3,0.9,1.2,1.5,2.1,1.4l10,0
		C16.5,23.2,19.8,23.3,23.2,23.3z"/>
	<path class="st0" d="M18,32.5c0.6-0.1,1.1-0.3,1.5-0.8c0.4-0.4,0.6-1,0.5-1.6c-0.1-1.2-1.2-2.1-2.4-2l-5.2,0l-1.3,0
		c-1.3,0-2.6,0-3.9,0c-0.4,0-0.7,0.1-1.1,0.2c-0.9,0.4-1.5,1.4-1.3,2.4c0.2,1.1,1.1,1.9,2.2,1.8h10.5C17.7,32.5,17.9,32.5,18,32.5z"
		/>
</g>
<circle class="st1" cx="106.6" cy="26.2" r="6"/>
<circle class="st1" cx="138.9" cy="26.2" r="6"/>
<circle class="st1" cx="170.3" cy="28.2" r="6"/>
<circle class="st1" cx="197" cy="36.8" r="6"/>
<circle class="st1" cx="224.4" cy="49.7" r="6"/>
<circle class="st1" cx="247.9" cy="66.6" r="6"/>
<circle class="st1" cx="267.6" cy="85.1" r="6"/>
<circle class="st1" cx="287.5" cy="104.6" r="6"/>
<circle class="st1" cx="310.5" cy="121.2" r="6"/>
<circle class="st1" cx="338.3" cy="134.3" r="6"/>
<circle class="st1" cx="365.2" cy="143.3" r="6"/>
<circle class="st1" cx="396.3" cy="144.8" r="6"/>
<circle class="st1" cx="428.9" cy="144.8" r="6"/>
<circle class="st1" cx="460.3" cy="144.8" r="6"/>
<g id="Calque_5">
	<path class="st0" d="M539.1,138l-13.4-19.7c-0.3-0.5-0.8-0.7-1.4-0.7h-2.1V113c0-0.9-0.7-1.7-1.7-1.7h-5.2c-0.9,0-1.7,0.8-1.7,1.7
		v4.6h-18.3c-0.1,0-0.2,0-0.4,0h-0.1l-0.2,0.1l-0.1,0.1h-0.1l-0.2,0.2c-0.1,0.1-0.1,0.1-0.2,0.2l-12.9,19c-0.5,0.8-0.3,1.8,0.4,2.3
		c0.3,0.2,0.6,0.3,1,0.3h5.8v20.7c0,0.9,0.7,1.7,1.7,1.7c0,0,0,0,0,0h42.2c0.9,0,1.7-0.8,1.7-1.7v-19.9h3.9c0.9,0,1.7-0.7,1.7-1.7
		C539.4,138.6,539.3,138.3,539.1,138L539.1,138z M530.5,140.6v18.2H517v-18.2H530.5z M505.5,144.5c-2.4-2.4-6.3-2.4-8.7,0
		c0,0,0,0,0,0c-0.3,0.3-0.5,0.7-0.5,1.2v13.1h-4.5v-20.1l7.4-10.9l8.3,12.1c0.3,0.5,0.8,0.7,1.4,0.7h4.9v18.2h-7.8v-13.1
		C505.9,145.3,505.8,144.8,505.5,144.5z M498.6,121h15.1v5.8c0.1,0.9,0.9,1.6,1.8,1.5c0.8-0.1,1.5-0.7,1.5-1.5v-12.1h1.9v12.1
		c0,0.9,0.7,1.7,1.7,1.7c0.9,0,1.7-0.7,1.7-1.7V121h1.2l11.1,16.3h-24.9L498.6,121z M497.1,124.8l-8,11.7h-3.4l9.7-14.2L497.1,124.8
		z M499.6,146.5c0.9-0.5,2.1-0.5,3,0v12.3h-3V146.5z"/>
	<path class="st0" d="M531.2,133.3c-0.3-0.3-0.7-0.5-1.2-0.5H511c-0.9,0.1-1.6,0.9-1.5,1.8c0.1,0.8,0.7,1.5,1.5,1.5H530
		c0.9,0,1.7-0.7,1.7-1.7C531.7,134,531.5,133.6,531.2,133.3z"/>
</g>
</svg>
